# xmcd
#
# Track frame offsets: 
#        150
#        13804
#        30970
#        43923
#        61716
#        76048
#        92901
#        111602
#        122167
#        138179
#        147341
#        164846
#        176605
#        198044
#        213417
#        225317
#        248186
#        259613
#        280135
#        298082
#        317531
#
# Disc length: 4481 seconds
#
# Revision: 5
# Processed by: cddbd v1.5.1PL0 Copyright (c) Steve Scherf et al.
# Submitted via: ExactAudioCopy v0.95b2
#
DISCID=2a117f15
DTITLE=Various Artist - Gold Instrumental Collection Vol.3-CD1
DYEAR=1900
DGENRE=Instrumental
TTITLE0=Walter Murphy - A Fifth Of Beethoven
TTITLE1=Vanessa Mae - Contadanza
TTITLE2=Francis Goya - Nostalgia
TTITLE3=Ron Asprey - I Will Always Love You
TTITLE4=Blonker - Sidewalk Cafe
TTITLE5=Alan Parsons - Hawkeye
TTITLE6=Secret Service - Aux Deux Magots
TTITLE7=The Shadows - Chattanooga Choo Choo
TTITLE8=Fausto Papetti - Feelings
TTITLE9=Jan Holland - Black Eyes
TTITLE10=Alex Bollard - You Are Lady
TTITLE11=Paul Mauriat - Godfather
TTITLE12=Santana - I Love You Much To Much
TTITLE13=Ocarina II - Ocarina II (Fluite Solo)
TTITLE14=Bert Kaempfert - Twilight
TTITLE15=Julee Cruise - Twin Peaks Theme
TTITLE16=Saint Preux - Prelude Pour Plano
TTITLE17=Kenny G - The Moment
TTITLE18=Frank Duval - Main Theme III
TTITLE19=Errol Garner - Paris Mist
TTITLE20=James Last - Biscaya
EXTD=ID3G: 33
EXTT0=
EXTT1=
EXTT2=
EXTT3=
EXTT4=
EXTT5=
EXTT6=
EXTT7=
EXTT8=
EXTT9=
EXTT10=
EXTT11=
EXTT12=
EXTT13=
EXTT14=
EXTT15=
EXTT16=
EXTT17=
EXTT18=
EXTT19=
EXTT20=
PLAYORDER=
